# File generated by ImageToStl.com - Free Image and 3D model conversion tools

mtllib star_wars_holo_projector.mtl

o obj1
v 0.13693662 0.43050372 0.27920564
v 0.00050463 0.43050372 0.31097773
v 0.13693661 0.43050372 0.27920561
v -0.00583955 0.14406326 0.55441566
v -0.00583953 0.14406326 0.55441562
v 0.31097777 0.43050372 -0.0005047
v 0.31097774 0.43050372 -0.00050469
v 0.27920557 0.43050372 -0.13693666
v 0.49479441 0.14406326 -0.2501785
v 0.49479443 0.14406326 -0.25017853
v -0.31097777 0.43050372 0.0005047
v -0.31097774 0.43050372 0.00050469
v -0.27920557 0.43050372 0.13693666
v -0.49479441 0.14406326 0.2501785
v -0.49479443 0.14406326 0.25017853
v -0.13693662 0.43050372 -0.27920564
v -0.00050463 0.43050372 -0.31097773
v -0.13693661 0.43050372 -0.27920561
v 0.00583955 0.14406326 -0.55441566
v 0.00583953 0.14406326 -0.55441562
v -0.26828325 -0 0.43117158
v -0.01675424 -0 0.50754703
v -0.01675424 0.1263321 0.50754703
v -0.26828325 0.1263321 0.43117158
v -0.00435777 -0 0.5607785
v 0.25166029 -0 0.50115728
v 0.25017849 0.14406326 0.49479442
v -0.00583955 0.14406326 0.55441566
v 0.23926382 -0 0.44792583
v 0.43117158 -0 0.26828325
v 0.43117158 0.1263321 0.26828325
v 0.23926382 0.1263321 0.44792583
v -0.14161461 0.32786407 0.2900455
v -0.00892826 0.39504138 0.27047209
v -0.14296836 0.39504138 0.22977168
v -0.17429707 0.32786407 0.28012164
v 0.04047559 0.20099447 0.49553914
v 0.18261701 0.20099447 0.46243739
v 0.11974497 0.36002681 0.34274198
v 0.04399777 0.36002681 0.36038193
v 0.12750371 0.39504138 0.23869998
v 0.25518607 0.32786407 0.19763896
v 0.28012164 0.32786407 0.17429707
v 0.22977168 0.39504138 0.14296836
v 0.13693662 0.43050372 0.27920564
v 0.00050463 0.43050372 0.31097773
v 0.25017849 0.14406326 0.49479442
v 0.25017851 0.14406326 0.49479439
v 0.01421928 0.16120136 0.51146797
v 0.21320927 0.16120136 0.46512736
v 0.19392282 0.17745319 0.45589064
v 0.02744068 0.17745319 0.49466086
v 0.125192 0.38383723 0.29756104
v 0.12028439 0.36371883 0.31569831
v 0.01915029 0.38383723 0.32225588
v 0.031566 0.36371883 0.33635895
v -0.18987405 0.2117864 0.3788305
v -0.22843094 0.21178638 0.36712292
v 0.33770532 0.2117864 0.25596833
v 0.36712292 0.21178638 0.22843094
v -0.18796066 0.20171049 0.36078011
v -0.21929605 0.20179658 0.35244177
v -0.14216884 0.31185289 0.27653487
v -0.16781968 0.31176677 0.2697115
v 0.32801416 0.20171049 0.24062041
v 0.24971428 0.31185289 0.18527352
v 0.35244177 0.20179658 0.21929605
v 0.2697115 0.31176677 0.16781968
v -0.14296836 0.39504138 0.22977168
v -0.00892826 0.39504138 0.27047209
v -0.00629249 0.39504138 0.19062245
v -0.10076083 0.39504138 0.16193783
v 0.12750371 0.39504138 0.23869998
v 0.08986172 0.39504138 0.16823023
v 0.22977168 0.39504138 0.14296836
v 0.16193783 0.39504138 0.10076083
v -0.0582959 0.35622977 0.09369029
v -0.00364056 0.35622977 0.11028616
v -0.00358814 0.30971061 0.10869864
v -0.05745678 0.30971061 0.0923417
v 0.05199019 0.35622977 0.09733093
v 0.05124179 0.30971061 0.0959299
v 0.09369029 0.35622977 0.0582959
v 0.0923417 0.30971061 0.05745678
v 0.22791118 0.16566284 0.48173445
v 0.00836697 0.16566284 0.53286171
v 0.13442958 0.4021205 0.30376513
v 0.01360406 0.40212054 0.33190281
v -0 0 -0
v 0.43117158 -0 0.26828325
v 0.23926382 -0 0.44792583
v -0.13414162 -0 0.21558579
v -0.01675424 -0 0.50754703
v -0.26828325 -0 0.43117158
v 0.26828325 0 -0.43117158
v 0.26828325 0.1263321 -0.43117158
v 0.44792581 0.1263321 -0.23926379
v 0.44792581 0 -0.23926379
v 0.50115727 0 -0.2516603
v 0.49479443 0.14406326 -0.25017853
v 0.55441564 0.14406326 0.00583951
v 0.56077851 -0 0.00435776
v 0.50754706 -0 0.01675426
v 0.50754706 0.1263321 0.01675426
v 0.19763896 0.32786407 -0.25518607
v 0.17429707 0.32786407 -0.28012164
v 0.14296836 0.39504138 -0.22977168
v 0.23869994 0.39504138 -0.12750373
v 0.46243739 0.20099447 -0.18261701
v 0.34274199 0.36002681 -0.11974501
v 0.3603819 0.36002681 -0.04399781
v 0.49553914 0.20099447 -0.04047559
v 0.27047211 0.39504138 0.00892822
v 0.2900455 0.32786407 0.14161461
v 0.31097777 0.43050372 -0.0005047
v 0.27920557 0.43050372 -0.13693666
v 0.55441561 0.14406326 0.00583954
v 0.55441564 0.14406326 0.00583951
v 0.46512738 0.16120136 -0.21320926
v 0.45589067 0.17745319 -0.1939228
v 0.49466084 0.17745319 -0.02744064
v 0.51146796 0.16120136 -0.01421926
v 0.33635895 0.36371883 -0.03156605
v 0.32225591 0.38383723 -0.01915034
v 0.31569829 0.36371883 -0.12028443
v 0.29756099 0.38383723 -0.12519203
v 0.25596834 0.2117864 -0.33770537
v 0.22843094 0.21178638 -0.36712292
v 0.37883048 0.2117864 0.18987402
v 0.21929605 0.20179658 -0.35244177
v 0.24062041 0.20171049 -0.3280142
v 0.18527352 0.31185289 -0.24971431
v 0.16781968 0.31176677 -0.2697115
v 0.27653486 0.31185289 0.14216881
v 0.36078009 0.20171049 0.18796062
v 0.14296836 0.39504138 -0.22977168
v 0.10076083 0.39504138 -0.16193783
v 0.16823016 0.39504138 -0.08986172
v 0.23869994 0.39504138 -0.12750373
v 0.19062252 0.39504138 0.00629246
v 0.27047211 0.39504138 0.00892822
v 0.0582959 0.35622977 -0.09369029
v 0.05745678 0.30971061 -0.0923417
v 0.09592989 0.30971061 -0.05124183
v 0.09733092 0.35622977 -0.05199022
v 0.10869863 0.30971061 0.00358811
v 0.11028616 0.35622977 0.00364053
v 0.09369029 0.35622977 0.0582959
v 0.48173448 0.16566284 -0.22791116
v 0.53286169 0.16566284 -0.00836694
v 0.33190283 0.4021205 -0.01360414
v 0.30376507 0.40212054 -0.13442963
v 0.13414162 0 -0.21558579
v 0.50754706 -0 0.01675426
v 0.26828325 0 -0.43117158
v 0.44792581 0 -0.23926379
v -0.44792581 0.1263321 0.23926379
v -0.44792581 -0 0.23926379
v -0.50115727 -0 0.2516603
v -0.49479443 0.14406326 0.25017853
v -0.55441564 0.14406326 -0.00583951
v -0.56077851 0 -0.00435776
v -0.50754706 0 -0.01675426
v -0.50754706 0.1263321 -0.01675426
v -0.43117158 0.1263321 -0.26828325
v -0.43117158 0 -0.26828325
v -0.19763896 0.32786407 0.25518607
v -0.23869994 0.39504138 0.12750373
v -0.46243739 0.20099447 0.18261701
v -0.34274199 0.36002681 0.11974501
v -0.3603819 0.36002681 0.04399781
v -0.49553914 0.20099447 0.04047559
v -0.27047211 0.39504138 -0.00892822
v -0.22977168 0.39504138 -0.14296836
v -0.28012164 0.32786407 -0.17429707
v -0.2900455 0.32786407 -0.14161461
v -0.31097777 0.43050372 0.0005047
v -0.27920557 0.43050372 0.13693666
v -0.55441561 0.14406326 -0.00583954
v -0.55441564 0.14406326 -0.00583951
v -0.46512738 0.16120136 0.21320926
v -0.45589067 0.17745319 0.1939228
v -0.49466084 0.17745319 0.02744064
v -0.51146796 0.16120136 0.01421926
v -0.33635895 0.36371883 0.03156605
v -0.32225591 0.38383723 0.01915034
v -0.31569829 0.36371883 0.12028443
v -0.29756099 0.38383723 0.12519203
v -0.25596834 0.2117864 0.33770537
v -0.37883048 0.2117864 -0.18987402
v -0.36712292 0.21178638 -0.22843094
v -0.24062041 0.20171049 0.3280142
v -0.18527352 0.31185289 0.24971431
v -0.27653486 0.31185289 -0.14216881
v -0.36078009 0.20171049 -0.18796062
v -0.35244177 0.20179658 -0.21929605
v -0.2697115 0.31176677 -0.16781968
v -0.16823016 0.39504138 0.08986172
v -0.23869994 0.39504138 0.12750373
v -0.19062252 0.39504138 -0.00629246
v -0.27047211 0.39504138 -0.00892822
v -0.16193783 0.39504138 -0.10076083
v -0.22977168 0.39504138 -0.14296836
v -0.0582959 0.35622977 0.09369029
v -0.09592989 0.30971061 0.05124183
v -0.09733092 0.35622977 0.05199022
v -0.10869863 0.30971061 -0.00358811
v -0.11028616 0.35622977 -0.00364053
v -0.0923417 0.30971061 -0.05745678
v -0.09369029 0.35622977 -0.0582959
v -0.48173448 0.16566284 0.22791116
v -0.53286169 0.16566284 0.00836694
v -0.33190283 0.4021205 0.01360414
v -0.30376507 0.40212054 0.13442963
v -0.50754706 0 -0.01675426
v -0.43117158 0 -0.26828325
v -0.44792581 -0 0.23926379
v 0.01675424 0 -0.50754703
v 0.01675424 0.1263321 -0.50754703
v 0.00435777 0 -0.5607785
v -0.25166029 0 -0.50115728
v -0.25017849 0.14406326 -0.49479442
v 0.00583955 0.14406326 -0.55441566
v -0.23926382 0 -0.44792583
v -0.23926382 0.1263321 -0.44792583
v 0.14161461 0.32786407 -0.2900455
v 0.00892826 0.39504138 -0.27047209
v -0.04047559 0.20099447 -0.49553914
v -0.18261701 0.20099447 -0.46243739
v -0.11974497 0.36002681 -0.34274198
v -0.04399777 0.36002681 -0.36038193
v -0.12750371 0.39504138 -0.23869998
v -0.25518607 0.32786407 -0.19763896
v -0.13693662 0.43050372 -0.27920564
v -0.00050463 0.43050372 -0.31097773
v -0.25017849 0.14406326 -0.49479442
v -0.25017851 0.14406326 -0.49479439
v -0.01421928 0.16120136 -0.51146797
v -0.21320927 0.16120136 -0.46512736
v -0.19392282 0.17745319 -0.45589064
v -0.02744068 0.17745319 -0.49466086
v -0.125192 0.38383723 -0.29756104
v -0.12028439 0.36371883 -0.31569831
v -0.01915029 0.38383723 -0.32225588
v -0.031566 0.36371883 -0.33635895
v 0.18987405 0.2117864 -0.3788305
v -0.33770532 0.2117864 -0.25596833
v 0.18796066 0.20171049 -0.36078011
v 0.14216884 0.31185289 -0.27653487
v -0.32801416 0.20171049 -0.24062041
v -0.24971428 0.31185289 -0.18527352
v 0.00892826 0.39504138 -0.27047209
v 0.00629249 0.39504138 -0.19062245
v -0.12750371 0.39504138 -0.23869998
v -0.08986172 0.39504138 -0.16823023
v 0.0582959 0.35622977 -0.09369029
v 0.00364056 0.35622977 -0.11028616
v 0.00358814 0.30971061 -0.10869864
v -0.05199019 0.35622977 -0.09733093
v -0.05124179 0.30971061 -0.0959299
v -0.22791118 0.16566284 -0.48173445
v -0.00836697 0.16566284 -0.53286171
v -0.13442958 0.4021205 -0.30376513
v -0.01360406 0.40212054 -0.33190281
v -0.23926382 0 -0.44792583
v 0.01675424 0 -0.50754703
vn 0 -1 0
vn 0.97014 0.24254 0
vn -0.97014 0.24254 0
vn 0 0 1
vn 0.25882 0 0.96593
vn 0.23357 0.43081 0.87169
vn 0 0.3608 0.93264
vn 0.70638 0.0453 0.70638
vn 0.70638 0.0453 0.70638
vn 0.70638 0.0453 0.70638
vn 0.96593 0 0.25882
vn 1 0 0
vn 0.97066 0.24044 0
vn 0.82385 0.52205 0.22075
vn 0.19695 0.64883 0.73501
vn 0.19695 0.64883 0.73501
vn 0 0.66179 0.74969
vn 0 0.66179 0.74969
vn 0.54606 0.63533 0.54606
vn 0.54606 0.63533 0.54606
vn 0.53269 0.65764 0.53269
vn 0.47002 0.74711 0.47002
vn 0.73501 0.64883 0.19695
vn 0.73501 0.64883 0.19694
vn 0.74969 0.66179 0
vn 0.74969 0.66179 0
vn 0 -1 0
vn 0 -1 0
vn 0 -1 0
vn 0 -1 0
vn 0.70711 0 -0.70711
vn 0.64681 0.12571 -0.75222
vn 0.67969 0.09212 -0.72769
vn 0.70711 0 -0.70711
vn -0.72822 0.09498 0.67873
vn -0.70711 0 0.70711
vn -0.70711 -0 0.70711
vn -0.75142 0.12302 0.64826
vn 0.61807 0.13034 -0.77524
vn 0.63582 0.14567 -0.75797
vn -0.16695 0.97173 -0.16695
vn -0.09918 0.99011 -0.09918
vn -0.45879 0.76093 -0.45879
vn -0.45879 0.76093 -0.45879
vn -0.75797 0.14567 0.63582
vn -0.77254 0.12427 0.62268
vn 0 1 0
vn -0.80308 -0.52175 0.28782
vn -0.66667 -0.33333 0.66667
vn -0.80642 -0.59134 0
vn 0.54606 0.63533 0.54606
vn 0.54606 0.63533 0.54606
vn 0.54606 0.63533 0.54606
vn 0.54606 0.63533 0.54606
vn 0.54606 0.63533 0.54606
vn 0.4268 0.7973 0.42679
vn 0.54606 0.63533 0.54606
vn 0.46807 0.74955 0.46807
vn 0.69802 -0.15984 0.69802
vn 0.69802 -0.15984 0.69802
vn 0.69802 -0.15984 0.69802
vn 0.80945 0.41475 -0.41566
vn 0.80945 0.41475 -0.41566
vn 0.80945 0.41475 -0.41566
vn -0.41566 0.41475 0.80945
vn -0.41566 0.41475 0.80945
vn -0.41566 0.41475 0.80945
vn 0.19694 0.64883 0.73501
vn 0 0.66179 0.74969
vn 0.73501 0.64883 0.19694
vn 0.74969 0.66179 0
vn 0 0.87268 -0.48829
vn -0.12735 0.87058 -0.47527
vn -0.13661 0.8645 -0.48371
vn 0 0.86588 -0.50025
vn -0.92422 0.2225 0.31035
vn -0.92422 0.2225 0.31035
vn -0.92422 0.2225 0.31035
vn 0.21784 -0.6086 0.76299
vn 0 -0.60592 0.79552
vn 0 -0.62358 0.78176
vn 0.22938 -0.62812 0.74354
vn 0.31035 0.2225 -0.92422
vn 0.31035 0.2225 -0.92422
vn 0.31035 0.2225 -0.92422
vn -0.48371 0.8645 -0.13661
vn -0.50025 0.86588 0
vn -0.48829 0.87268 -0
vn -0.46935 0.87168 -0.14098
vn 0.78176 -0.62358 0
vn 0.75523 -0.62344 0.20236
vn 0.76299 -0.6086 0.21784
vn 0.79552 -0.60592 0
vn -0.11258 0.97891 -0.17047
vn 0 0.9588 -0.28408
vn -0.18273 0.97891 -0.09134
vn 0 1 0
vn -0.14043 0.99009 0
vn 0 0.03412 -0.99942
vn -0.57403 0.03399 -0.81813
vn -0.41995 0.03399 -0.90691
vn 0 0.03412 -0.99942
vn -0.90619 0.03399 -0.42151
vn -0.81714 0.03399 -0.57543
vn -0.99942 0.03412 0
vn -0.99942 0.03412 0
vn -0.17038 0.89921 -0.40298
vn 0 0.90052 -0.43482
vn -0.34905 0.89921 -0.2638
vn -0.43482 0.90052 0
vn 0.54606 0.63533 0.54606
vn 0.54606 0.63533 0.54606
vn 0.54606 0.63533 0.54606
vn 0.54606 0.63533 0.54606
vn 0.54606 0.63533 0.54606
vn 0.54606 0.63533 0.54606
vn 0.54606 0.63533 0.54606
vn 0.54606 0.63533 0.54606
vn -0.15764 0.97483 -0.15764
vn -0.15764 0.97483 -0.15764
vn -0.15764 0.97483 -0.15764
vn -0.31418 0.17131 0.93378
vn -0.31418 0.17131 0.93378
vn -0.31418 0.17131 0.93378
vn 0.64601 -0.40663 0.64601
vn 0.64601 -0.40663 0.64601
vn 0.64601 -0.40663 0.64601
vn 0.93378 0.17131 -0.31418
vn 0.93378 0.17131 -0.31418
vn 0.93378 0.17131 -0.31418
vn -0 -1 -0
vn 0 -1 0
vn 0 -1 -0
vn 0 -1 -0
vn 0 0 -1
vn 0 0.3608 -0.93264
vn 0.23357 0.43081 -0.87169
vn 0.25882 0 -0.96593
vn 0.70638 0.0453 -0.70638
vn 0.70638 0.0453 -0.70638
vn 0.70638 0.0453 -0.70638
vn 0.96593 0 -0.25882
vn 0.82385 0.52205 -0.22075
vn 0.19695 0.64883 -0.73501
vn 0 0.66179 -0.74969
vn 0 0.66179 -0.74969
vn 0.19695 0.64883 -0.73501
vn 0.54606 0.63533 -0.54606
vn 0.47002 0.74711 -0.47002
vn 0.53269 0.65764 -0.53269
vn 0.54606 0.63533 -0.54606
vn 0.73501 0.64883 -0.19695
vn 0.73501 0.64883 -0.19694
vn 0 -1 -0
vn 0 -1 -0
vn 0 -1 -0
vn 0 -1 -0
vn 0.70711 0 0.70711
vn 0.70711 0 0.70711
vn 0.67969 0.09212 0.72769
vn 0.64681 0.12571 0.75222
vn -0.72822 0.09498 -0.67873
vn -0.75142 0.12302 -0.64826
vn -0.70711 -0 -0.70711
vn -0.70711 0 -0.70711
vn 0.63582 0.14567 0.75797
vn 0.61807 0.13034 0.77524
vn -0.16695 0.97173 0.16695
vn -0.45879 0.76093 0.45879
vn -0.45879 0.76093 0.45879
vn -0.09918 0.99011 0.09918
vn -0.75797 0.14567 -0.63582
vn -0.77254 0.12427 -0.62268
vn -0.80308 -0.52175 -0.28782
vn -0.66667 -0.33333 -0.66667
vn 0.54606 0.63533 -0.54606
vn 0.54606 0.63533 -0.54606
vn 0.54606 0.63533 -0.54606
vn 0.54606 0.63533 -0.54606
vn 0.4268 0.7973 -0.42679
vn 0.54606 0.63533 -0.54606
vn 0.46807 0.74955 -0.46807
vn 0.54606 0.63533 -0.54606
vn 0.69802 -0.15984 -0.69802
vn 0.69802 -0.15984 -0.69802
vn 0.69802 -0.15984 -0.69802
vn 0.80945 0.41475 0.41566
vn 0.80945 0.41475 0.41566
vn 0.80945 0.41475 0.41566
vn -0.41566 0.41475 -0.80945
vn -0.41566 0.41475 -0.80945
vn -0.41566 0.41475 -0.80945
vn 0.19694 0.64883 -0.73501
vn 0 0.66179 -0.74969
vn 0.73501 0.64883 -0.19694
vn -0 0.87268 0.48829
vn 0 0.86588 0.50025
vn -0.13661 0.8645 0.48371
vn -0.12735 0.87058 0.47527
vn -0.92422 0.2225 -0.31035
vn -0.92422 0.2225 -0.31035
vn -0.92422 0.2225 -0.31035
vn 0.21784 -0.6086 -0.76299
vn 0.22938 -0.62812 -0.74354
vn -0 -0.62358 -0.78176
vn 0 -0.60592 -0.79552
vn 0.31035 0.2225 0.92422
vn 0.31035 0.2225 0.92422
vn 0.31035 0.2225 0.92422
vn -0.48371 0.8645 0.13661
vn -0.46935 0.87168 0.14098
vn 0.76299 -0.6086 -0.21784
vn 0.75523 -0.62344 -0.20236
vn 0 0.9588 0.28408
vn -0.11258 0.97891 0.17047
vn -0.18273 0.97891 0.09134
vn 0 0.03412 0.99942
vn 0 0.03412 0.99942
vn -0.41995 0.03399 0.90691
vn -0.57403 0.03399 0.81813
vn -0.81714 0.03399 0.57543
vn -0.90619 0.03399 0.42151
vn 0 0.90052 0.43482
vn -0.17038 0.89921 0.40298
vn -0.34905 0.89921 0.2638
vn 0.54606 0.63533 -0.54606
vn 0.54606 0.63533 -0.54606
vn 0.54606 0.63533 -0.54606
vn 0.54606 0.63533 -0.54606
vn 0.54606 0.63533 -0.54606
vn 0.54606 0.63533 -0.54606
vn 0.54606 0.63533 -0.54606
vn 0.54606 0.63533 -0.54606
vn -0.15764 0.97483 0.15764
vn -0.15764 0.97483 0.15764
vn -0.15764 0.97483 0.15764
vn -0.31418 0.17131 -0.93378
vn -0.31418 0.17131 -0.93378
vn -0.31418 0.17131 -0.93378
vn 0.64601 -0.40663 -0.64601
vn 0.64601 -0.40663 -0.64601
vn 0.64601 -0.40663 -0.64601
vn 0.93378 0.17131 0.31418
vn 0.93378 0.17131 0.31418
vn 0.93378 0.17131 0.31418
vn -0 -1 0
vn 0 -1 0
vn -0.23357 0.43081 0.87169
vn -0.25882 0 0.96593
vn -0.70638 0.0453 0.70638
vn -0.70638 0.0453 0.70638
vn -0.70638 0.0453 0.70638
vn -0.96593 0 0.25882
vn -0.82385 0.52205 0.22075
vn -0.97066 0.24044 -0
vn -1 0 0
vn -0.19695 0.64883 0.73501
vn -0.19695 0.64883 0.73501
vn -0.54606 0.63533 0.54606
vn -0.47002 0.74711 0.47002
vn -0.53269 0.65764 0.53269
vn -0.54606 0.63533 0.54606
vn -0.73501 0.64883 0.19695
vn -0.74969 0.66179 0
vn -0.74969 0.66179 0
vn -0.73501 0.64883 0.19694
vn -0 -1 0
vn -0 -1 0
vn -0 -1 0
vn -0 -1 0
vn -0.70711 0 -0.70711
vn -0.70711 0 -0.70711
vn -0.67969 0.09212 -0.72769
vn -0.64681 0.12571 -0.75222
vn 0.72822 0.09498 0.67873
vn 0.75142 0.12302 0.64826
vn 0.70711 -0 0.70711
vn 0.70711 0 0.70711
vn -0.63582 0.14567 -0.75797
vn -0.61807 0.13034 -0.77524
vn 0.16695 0.97173 -0.16695
vn 0.45879 0.76093 -0.45879
vn 0.45879 0.76093 -0.45879
vn 0.09918 0.99011 -0.09918
vn 0.75797 0.14567 0.63582
vn 0.77254 0.12427 0.62268
vn 0.80308 -0.52175 0.28782
vn 0.80642 -0.59134 0
vn 0.66667 -0.33333 0.66667
vn -0.54606 0.63533 0.54606
vn -0.54606 0.63533 0.54606
vn -0.54606 0.63533 0.54606
vn -0.54606 0.63533 0.54606
vn -0.4268 0.7973 0.42679
vn -0.54606 0.63533 0.54606
vn -0.46807 0.74955 0.46807
vn -0.54606 0.63533 0.54606
vn -0.69802 -0.15984 0.69802
vn -0.69802 -0.15984 0.69802
vn -0.69802 -0.15984 0.69802
vn -0.80945 0.41475 -0.41566
vn -0.80945 0.41475 -0.41566
vn -0.80945 0.41475 -0.41566
vn 0.41566 0.41475 0.80945
vn 0.41566 0.41475 0.80945
vn 0.41566 0.41475 0.80945
vn -0.19694 0.64883 0.73501
vn -0.73501 0.64883 0.19694
vn -0.74969 0.66179 0
vn 0.13661 0.8645 -0.48371
vn 0.12735 0.87058 -0.47527
vn 0.92422 0.2225 0.31035
vn 0.92422 0.2225 0.31035
vn 0.92422 0.2225 0.31035
vn -0.21784 -0.6086 0.76299
vn -0.22938 -0.62812 0.74354
vn -0.31035 0.2225 -0.92422
vn -0.31035 0.2225 -0.92422
vn -0.31035 0.2225 -0.92422
vn 0.48371 0.8645 -0.13661
vn 0.46935 0.87168 -0.14098
vn 0.48829 0.87268 0
vn 0.50025 0.86588 0
vn -0.78176 -0.62358 -0
vn -0.79552 -0.60592 0
vn -0.76299 -0.6086 0.21784
vn -0.75523 -0.62344 0.20236
vn 0.11258 0.97891 -0.17047
vn 0.18273 0.97891 -0.09134
vn 0.14043 0.99009 0
vn 0.41995 0.03399 -0.90691
vn 0.57403 0.03399 -0.81813
vn 0.81714 0.03399 -0.57543
vn 0.90619 0.03399 -0.42151
vn 0.99942 0.03412 -0
vn 0.99942 0.03412 0
vn 0.17038 0.89921 -0.40298
vn 0.34905 0.89921 -0.2638
vn 0.43482 0.90052 0
vn -0.54606 0.63533 0.54606
vn -0.54606 0.63533 0.54606
vn -0.54606 0.63533 0.54606
vn -0.54606 0.63533 0.54606
vn -0.54606 0.63533 0.54606
vn -0.54606 0.63533 0.54606
vn -0.54606 0.63533 0.54606
vn -0.54606 0.63533 0.54606
vn 0.15764 0.97483 -0.15764
vn 0.15764 0.97483 -0.15764
vn 0.15764 0.97483 -0.15764
vn 0.31418 0.17131 0.93378
vn 0.31418 0.17131 0.93378
vn 0.31418 0.17131 0.93378
vn -0.64601 -0.40663 0.64601
vn -0.64601 -0.40663 0.64601
vn -0.64601 -0.40663 0.64601
vn -0.93378 0.17131 -0.31418
vn -0.93378 0.17131 -0.31418
vn -0.93378 0.17131 -0.31418
vn -0 -1 -0
vn -0.25882 0 -0.96593
vn -0.23357 0.43081 -0.87169
vn -0.70638 0.0453 -0.70638
vn -0.70638 0.0453 -0.70638
vn -0.70638 0.0453 -0.70638
vn -0.96593 0 -0.25882
vn -0.82385 0.52205 -0.22075
vn -0.19695 0.64883 -0.73501
vn -0.19695 0.64883 -0.73501
vn -0.54606 0.63533 -0.54606
vn -0.54606 0.63533 -0.54606
vn -0.53269 0.65764 -0.53269
vn -0.47002 0.74711 -0.47002
vn -0.73501 0.64883 -0.19695
vn -0.73501 0.64883 -0.19694
vn -0 -1 -0
vn -0 -1 -0
vn -0 -1 -0
vn -0 -1 -0
vn -0.70711 0 0.70711
vn -0.64681 0.12571 0.75222
vn -0.67969 0.09212 0.72769
vn -0.70711 0 0.70711
vn 0.72822 0.09498 -0.67873
vn 0.70711 0 -0.70711
vn 0.70711 -0 -0.70711
vn 0.75142 0.12302 -0.64826
vn -0.61807 0.13034 0.77524
vn -0.63582 0.14567 0.75797
vn 0.16695 0.97173 0.16695
vn 0.09918 0.99011 0.09918
vn 0.45879 0.76093 0.45879
vn 0.45879 0.76093 0.45879
vn 0.75797 0.14567 -0.63582
vn 0.77254 0.12427 -0.62268
vn 0.80308 -0.52175 -0.28782
vn 0.66667 -0.33333 -0.66667
vn -0.54606 0.63533 -0.54606
vn -0.54606 0.63533 -0.54606
vn -0.54606 0.63533 -0.54606
vn -0.54606 0.63533 -0.54606
vn -0.54606 0.63533 -0.54606
vn -0.4268 0.7973 -0.42679
vn -0.54606 0.63533 -0.54606
vn -0.46807 0.74955 -0.46807
vn -0.69802 -0.15984 -0.69802
vn -0.69802 -0.15984 -0.69802
vn -0.69802 -0.15984 -0.69802
vn -0.80945 0.41475 0.41566
vn -0.80945 0.41475 0.41566
vn -0.80945 0.41475 0.41566
vn 0.41566 0.41475 -0.80945
vn 0.41566 0.41475 -0.80945
vn 0.41566 0.41475 -0.80945
vn -0.19694 0.64883 -0.73501
vn -0.73501 0.64883 -0.19694
vn 0.12735 0.87058 0.47527
vn 0.13661 0.8645 0.48371
vn 0.92422 0.2225 -0.31035
vn 0.92422 0.2225 -0.31035
vn 0.92422 0.2225 -0.31035
vn -0.21784 -0.6086 -0.76299
vn -0.22938 -0.62812 -0.74354
vn -0.31035 0.2225 0.92422
vn -0.31035 0.2225 0.92422
vn -0.31035 0.2225 0.92422
vn 0.48371 0.8645 0.13661
vn 0.46935 0.87168 0.14098
vn -0.75523 -0.62344 -0.20236
vn -0.76299 -0.6086 -0.21784
vn 0.11258 0.97891 0.17047
vn 0.18273 0.97891 0.09134
vn 0.57403 0.03399 0.81813
vn 0.41995 0.03399 0.90691
vn 0.90619 0.03399 0.42151
vn 0.81714 0.03399 0.57543
vn 0.17038 0.89921 0.40298
vn 0.34905 0.89921 0.2638
vn -0.54606 0.63533 -0.54606
vn -0.54606 0.63533 -0.54606
vn -0.54606 0.63533 -0.54606
vn -0.54606 0.63533 -0.54606
vn -0.54606 0.63533 -0.54606
vn -0.54606 0.63533 -0.54606
vn -0.54606 0.63533 -0.54606
vn -0.54606 0.63533 -0.54606
vn 0.15764 0.97483 0.15764
vn 0.15764 0.97483 0.15764
vn 0.15764 0.97483 0.15764
vn 0.31418 0.17131 -0.93378
vn 0.31418 0.17131 -0.93378
vn 0.31418 0.17131 -0.93378
vn -0.64601 -0.40663 -0.64601
vn -0.64601 -0.40663 -0.64601
vn -0.64601 -0.40663 -0.64601
vn -0.93378 0.17131 0.31418
vn -0.93378 0.17131 0.31418
vn -0.93378 0.17131 0.31418
vt 0.53275 0.33344
vt 0.56461 0.11663
vt 0.53264 0.33346
vt 0.01204 0.01009
vt 0.01206 0.0101
vt 0.0146 0.93976
vt 0.29087 0.98282
vt 0.27306 0.82705
vt 0.0238 0.80037
vt 0.32256 0.95203
vt 0.58144 0.94507
vt 0.58698 0.83132
vt 0.32072 0.83117
vt 0.61575 0.98116
vt 0.89259 0.94779
vt 0.88474 0.80333
vt 0.63486 0.82963
vt 0.18859 0.50384
vt 0.34652 0.45969
vt 0.23079 0.40968
vt 0.16737 0.47172
vt 0.12966 0.12166
vt 0.13525 0.32066
vt 0.40047 0.26992
vt 0.40157 0.17081
vt 0.5646 0.46358
vt 0.72134 0.5071
vt 0.74233 0.47483
vt 0.67878 0.41315
vt 0.5265 0.49547
vt 0.38371 0.4972
vt 0.01682 0.43517
vt 0.01682 0.43514
vt 0.07329 0.06754
vt 0.08028 0.37589
vt 0.10803 0.35133
vt 0.10294 0.09181
vt 0.46617 0.29939
vt 0.43107 0.28855
vt 0.47529 0.14326
vt 0.43649 0.15324
vt 0.09532 0.66789
vt 0.04956 0.67679
vt 0.81408 0.67108
vt 0.85972 0.67981
vt 0.08091 0.64938
vt 0.04918 0.65775
vt 0.16569 0.50257
vt 0.15136 0.48126
vt 0.82841 0.65248
vt 0.74417 0.50569
vt 0.86008 0.66074
vt 0.75838 0.48426
vt 0.94558 0.64718
vt 0.99019 0.49515
vt 0.91899 0.48096
vt 0.88821 0.59056
vt 0.98144 0.33811
vt 0.91299 0.36557
vt 0.92361 0.19834
vt 0.87307 0.26319
vt 0.82257 0.53077
vt 0.83684 0.46592
vt 0.79499 0.4639
vt 0.78606 0.52464
vt 0.83394 0.39292
vt 0.79152 0.40349
vt 0.81388 0.33046
vt 0.77634 0.34142
vt 0.05802 0.40437
vt 0.05216 0.03969
vt 0.4852 0.32116
vt 0.50201 0.1256
vt 0.78251 0.29848
vt 0.66145 0.11893
vt 0.58789 0.20352
vt 0.69273 0.35901
vt 0.56648 0.31355
vt 0.60296 0.41954
vt 0.82263 0.53081
vt 0.83715 0.46639
vt 0.8336 0.39406
vt 0.81392 0.3312
vt 0.82265 0.53075
vt 0.83719 0.46627
vt 0.83376 0.39365
vt 0.81447 0.32976
vt 0.83378 0.39371
usemtl mat0
f 1/1/1 2/2/1 3/3/1
f 2/2/2 4/4/2 5/5/2
f 6/1/1 7/3/1 8/2/1
f 8/2/2 9/5/2 10/4/2
f 11/1/1 12/3/1 13/2/1
f 13/2/3 14/5/3 15/4/3
f 16/1/1 17/2/1 18/3/1
f 17/2/3 19/4/3 20/5/3
f 21/6/4 22/7/5 23/8/6
f 21/6/4 23/8/6 24/9/7
f 25/10/8 26/11/9 27/12/8
f 25/10/8 27/12/8 28/13/10
f 29/14/11 30/15/12 31/16/13
f 29/14/11 31/16/13 32/17/14
f 33/18/15 34/19/16 35/20/17
f 33/18/15 35/20/17 36/21/18
f 37/22/19 38/23/20 39/24/21
f 37/22/19 39/24/21 40/25/22
f 41/26/23 42/27/24 43/28/25
f 41/26/23 43/28/25 44/29/26
f 22/7/27 29/14/28 26/11/29
f 22/7/27 26/11/29 25/10/30
f 29/14/31 32/17/32 27/12/33
f 29/14/31 27/12/33 26/11/34
f 23/8/35 22/7/36 25/10/37
f 23/8/35 25/10/37 28/13/38
f 32/17/32 41/26/39 45/30/40
f 32/17/32 45/30/40 27/12/33
f 41/26/41 34/19/42 46/31/43
f 41/26/41 46/31/43 45/30/44
f 34/19/45 23/8/35 28/13/38
f 34/19/45 28/13/38 46/31/46
f 4/4/47 47/32/47 48/33/47
f 4/4/47 48/33/47 5/5/47
f 47/32/48 1/1/49 3/3/48
f 47/32/48 3/3/48 48/33/50
f 49/34/51 50/35/52 51/36/53
f 49/34/51 51/36/53 52/37/54
f 50/35/52 53/38/55 54/39/56
f 50/35/52 54/39/56 51/36/53
f 53/38/55 55/40/57 56/41/58
f 53/38/55 56/41/58 54/39/56
f 55/40/57 49/34/51 52/37/54
f 55/40/57 52/37/54 56/41/58
f 38/23/59 37/22/60 52/37/59
f 38/23/59 52/37/59 51/36/61
f 39/24/62 38/23/63 51/36/62
f 39/24/62 51/36/62 54/39/64
f 40/25/22 39/24/21 54/39/56
f 40/25/22 54/39/56 56/41/58
f 37/22/65 40/25/66 56/41/65
f 37/22/65 56/41/65 52/37/67
f 23/8/6 34/19/16 33/18/15
f 23/8/6 33/18/15 57/42/68
f 24/9/7 23/8/6 57/42/68
f 24/9/7 57/42/68 58/43/69
f 32/17/14 59/44/70 42/27/24
f 32/17/14 42/27/24 41/26/23
f 31/16/13 60/45/71 59/44/70
f 31/16/13 59/44/70 32/17/14
f 58/43/72 57/42/73 61/46/74
f 58/43/72 61/46/74 62/47/75
f 57/42/76 33/18/77 63/48/76
f 57/42/76 63/48/76 61/46/78
f 33/18/79 36/21/80 64/49/81
f 33/18/79 64/49/81 63/48/82
f 42/27/83 59/44/84 65/50/83
f 42/27/83 65/50/83 66/51/85
f 59/44/86 60/45/87 67/52/88
f 59/44/86 67/52/88 65/50/89
f 43/28/90 42/27/91 66/51/92
f 43/28/90 66/51/92 68/53/93
f 69/54/47 70/55/42 71/56/94
f 69/54/47 71/56/94 72/57/95
f 70/55/42 73/58/41 74/59/96
f 70/55/42 74/59/96 71/56/94
f 73/58/41 75/60/97 76/61/98
f 73/58/41 76/61/98 74/59/96
f 77/62/99 78/63/100 79/64/101
f 77/62/99 79/64/101 80/65/102
f 78/63/100 81/66/103 82/67/104
f 78/63/100 82/67/104 79/64/101
f 81/66/103 83/68/105 84/69/106
f 81/66/103 84/69/106 82/67/104
f 72/57/95 71/56/94 78/63/107
f 72/57/95 78/63/107 77/62/108
f 71/56/94 74/59/96 81/66/109
f 71/56/94 81/66/109 78/63/107
f 74/59/96 76/61/98 83/68/110
f 74/59/96 83/68/110 81/66/109
f 5/5/111 48/33/112 85/70/113
f 5/5/111 85/70/113 86/71/114
f 48/33/112 3/3/115 87/72/116
f 48/33/112 87/72/116 85/70/113
f 3/3/115 2/2/117 88/73/118
f 3/3/115 88/73/118 87/72/116
f 2/2/117 5/5/111 86/71/114
f 2/2/117 86/71/114 88/73/118
f 86/71/119 85/70/120 50/35/119
f 86/71/119 50/35/119 49/34/121
f 85/70/122 87/72/123 53/38/122
f 85/70/122 53/38/122 50/35/124
f 87/72/125 88/73/126 55/40/125
f 87/72/125 55/40/125 53/38/127
f 88/73/128 86/71/129 49/34/128
f 88/73/128 49/34/128 55/40/130
f 89/74/131 90/75/132 91/76/28
f 89/74/131 91/76/28 92/77/133
f 92/77/133 91/76/28 93/78/27
f 92/77/133 93/78/27 94/79/134
f 95/6/135 96/9/136 97/8/137
f 95/6/135 97/8/137 98/7/138
f 99/10/139 100/13/140 101/12/139
f 99/10/139 101/12/139 102/11/141
f 103/14/142 104/17/143 31/16/13
f 103/14/142 31/16/13 30/15/12
f 105/18/144 106/21/145 107/20/146
f 105/18/144 107/20/146 108/19/147
f 109/22/148 110/25/149 111/24/150
f 109/22/148 111/24/150 112/23/151
f 113/26/152 44/29/26 43/28/25
f 113/26/152 43/28/25 114/27/153
f 98/7/154 99/10/155 102/11/156
f 98/7/154 102/11/156 103/14/157
f 103/14/158 102/11/159 101/12/160
f 103/14/158 101/12/160 104/17/161
f 97/8/162 100/13/163 99/10/164
f 97/8/162 99/10/164 98/7/165
f 104/17/161 101/12/160 115/30/166
f 104/17/161 115/30/166 113/26/167
f 113/26/168 115/30/169 116/31/170
f 113/26/168 116/31/170 108/19/171
f 108/19/172 116/31/173 100/13/163
f 108/19/172 100/13/163 97/8/162
f 10/4/47 9/5/47 117/33/47
f 10/4/47 117/33/47 118/32/47
f 118/32/174 117/33/50 7/3/174
f 118/32/174 7/3/174 6/1/175
f 119/34/176 120/37/177 121/36/178
f 119/34/176 121/36/178 122/35/179
f 122/35/179 121/36/178 123/39/180
f 122/35/179 123/39/180 124/38/181
f 124/38/181 123/39/180 125/41/182
f 124/38/181 125/41/182 126/40/183
f 126/40/183 125/41/182 120/37/177
f 126/40/183 120/37/177 119/34/176
f 112/23/184 121/36/185 120/37/184
f 112/23/184 120/37/184 109/22/186
f 111/24/187 123/39/188 121/36/187
f 111/24/187 121/36/187 112/23/189
f 110/25/149 125/41/182 123/39/180
f 110/25/149 123/39/180 111/24/150
f 109/22/190 120/37/191 125/41/190
f 109/22/190 125/41/190 110/25/192
f 97/8/137 127/42/193 105/18/144
f 97/8/137 105/18/144 108/19/147
f 96/9/136 128/43/194 127/42/193
f 96/9/136 127/42/193 97/8/137
f 104/17/143 113/26/152 114/27/153
f 104/17/143 114/27/153 129/44/195
f 31/16/13 104/17/143 129/44/195
f 31/16/13 129/44/195 60/45/71
f 128/43/196 130/47/197 131/46/198
f 128/43/196 131/46/198 127/42/199
f 127/42/200 131/46/201 132/48/200
f 127/42/200 132/48/200 105/18/202
f 105/18/203 132/48/204 133/49/205
f 105/18/203 133/49/205 106/21/206
f 114/27/207 134/51/208 135/50/207
f 114/27/207 135/50/207 129/44/209
f 129/44/210 135/50/211 67/52/88
f 129/44/210 67/52/88 60/45/87
f 43/28/90 68/53/93 134/51/212
f 43/28/90 134/51/212 114/27/213
f 136/54/47 137/57/214 138/56/215
f 136/54/47 138/56/215 139/55/171
f 139/55/171 138/56/215 140/59/216
f 139/55/171 140/59/216 141/58/168
f 141/58/168 140/59/216 76/61/98
f 141/58/168 76/61/98 75/60/97
f 142/80/217 143/65/218 144/64/219
f 142/80/217 144/64/219 145/81/220
f 145/81/220 144/64/219 146/67/221
f 145/81/220 146/67/221 147/82/222
f 147/82/222 146/67/221 84/69/106
f 147/82/222 84/69/106 148/83/105
f 137/57/214 142/80/223 145/81/224
f 137/57/214 145/81/224 138/56/215
f 138/56/215 145/81/224 147/82/225
f 138/56/215 147/82/225 140/59/216
f 140/59/216 147/82/225 148/83/110
f 140/59/216 148/83/110 76/61/98
f 9/5/226 149/71/227 150/70/228
f 9/5/226 150/70/228 117/33/229
f 117/33/229 150/70/228 151/72/230
f 117/33/229 151/72/230 7/3/231
f 7/3/231 151/72/230 152/73/232
f 7/3/231 152/73/232 8/2/233
f 8/2/233 152/73/232 149/71/227
f 8/2/233 149/71/227 9/5/226
f 149/71/234 119/34/235 122/35/234
f 149/71/234 122/35/234 150/70/236
f 150/70/237 122/35/238 124/38/237
f 150/70/237 124/38/237 151/72/239
f 151/72/240 124/38/241 126/40/240
f 151/72/240 126/40/240 152/73/242
f 152/73/243 126/40/244 119/34/243
f 152/73/243 119/34/243 149/71/245
f 89/74/131 153/77/246 154/76/157
f 89/74/131 154/76/157 90/75/132
f 153/77/246 155/79/247 156/78/154
f 153/77/246 156/78/154 154/76/157
f 21/6/4 24/9/7 157/8/248
f 21/6/4 157/8/248 158/7/249
f 159/10/250 160/13/251 161/12/250
f 159/10/250 161/12/250 162/11/252
f 163/14/253 164/17/254 165/16/255
f 163/14/253 165/16/255 166/15/256
f 167/18/257 36/21/18 35/20/17
f 167/18/257 35/20/17 168/19/258
f 169/22/259 170/25/260 171/24/261
f 169/22/259 171/24/261 172/23/262
f 173/26/263 174/29/264 175/28/265
f 173/26/263 175/28/265 176/27/266
f 158/7/267 159/10/268 162/11/269
f 158/7/267 162/11/269 163/14/270
f 163/14/271 162/11/272 161/12/273
f 163/14/271 161/12/273 164/17/274
f 157/8/275 160/13/276 159/10/277
f 157/8/275 159/10/277 158/7/278
f 164/17/274 161/12/273 177/30/279
f 164/17/274 177/30/279 173/26/280
f 173/26/281 177/30/282 178/31/283
f 173/26/281 178/31/283 168/19/284
f 168/19/285 178/31/286 160/13/276
f 168/19/285 160/13/276 157/8/275
f 15/4/47 14/5/47 179/33/47
f 15/4/47 179/33/47 180/32/47
f 180/32/287 179/33/288 12/3/287
f 180/32/287 12/3/287 11/1/289
f 181/34/290 182/37/291 183/36/292
f 181/34/290 183/36/292 184/35/293
f 184/35/293 183/36/292 185/39/294
f 184/35/293 185/39/294 186/38/295
f 186/38/295 185/39/294 187/41/296
f 186/38/295 187/41/296 188/40/297
f 188/40/297 187/41/296 182/37/291
f 188/40/297 182/37/291 181/34/290
f 172/23/298 183/36/299 182/37/298
f 172/23/298 182/37/298 169/22/300
f 171/24/301 185/39/302 183/36/301
f 171/24/301 183/36/301 172/23/303
f 170/25/260 187/41/296 185/39/294
f 170/25/260 185/39/294 171/24/261
f 169/22/304 182/37/305 187/41/304
f 169/22/304 187/41/304 170/25/306
f 157/8/248 189/42/307 167/18/257
f 157/8/248 167/18/257 168/19/258
f 24/9/7 58/43/69 189/42/307
f 24/9/7 189/42/307 157/8/248
f 164/17/254 173/26/263 176/27/266
f 164/17/254 176/27/266 190/44/308
f 165/16/255 164/17/254 190/44/308
f 165/16/255 190/44/308 191/45/309
f 58/43/72 62/47/75 192/46/310
f 58/43/72 192/46/310 189/42/311
f 189/42/312 192/46/313 193/48/312
f 189/42/312 193/48/312 167/18/314
f 167/18/315 193/48/316 64/49/81
f 167/18/315 64/49/81 36/21/80
f 176/27/317 194/51/318 195/50/317
f 176/27/317 195/50/317 190/44/319
f 190/44/320 195/50/321 196/52/322
f 190/44/320 196/52/322 191/45/323
f 175/28/324 197/53/325 194/51/326
f 175/28/324 194/51/326 176/27/327
f 69/54/47 72/57/95 198/56/328
f 69/54/47 198/56/328 199/55/284
f 199/55/284 198/56/328 200/59/329
f 199/55/284 200/59/329 201/58/281
f 201/58/281 200/59/329 202/61/330
f 201/58/281 202/61/330 203/60/97
f 204/84/99 80/65/102 205/64/331
f 204/84/99 205/64/331 206/85/332
f 206/85/332 205/64/331 207/67/333
f 206/85/332 207/67/333 208/86/334
f 208/86/334 207/67/333 209/69/335
f 208/86/334 209/69/335 210/87/336
f 72/57/95 204/84/108 206/85/337
f 72/57/95 206/85/337 198/56/328
f 198/56/328 206/85/337 208/86/338
f 198/56/328 208/86/338 200/59/329
f 200/59/329 208/86/338 210/87/339
f 200/59/329 210/87/339 202/61/330
f 14/5/340 211/71/341 212/70/342
f 14/5/340 212/70/342 179/33/343
f 179/33/343 212/70/342 213/72/344
f 179/33/343 213/72/344 12/3/345
f 12/3/345 213/72/344 214/73/346
f 12/3/345 214/73/346 13/2/347
f 13/2/347 214/73/346 211/71/341
f 13/2/347 211/71/341 14/5/340
f 211/71/348 181/34/349 184/35/348
f 211/71/348 184/35/348 212/70/350
f 212/70/351 184/35/352 186/38/351
f 212/70/351 186/38/351 213/72/353
f 213/72/354 186/38/355 188/40/354
f 213/72/354 188/40/354 214/73/356
f 214/73/357 188/40/358 181/34/357
f 214/73/357 181/34/357 211/71/359
f 89/74/131 92/77/133 215/76/270
f 89/74/131 215/76/270 216/75/360
f 92/77/133 94/79/134 217/78/267
f 92/77/133 217/78/267 215/76/270
f 95/6/135 218/7/361 219/8/362
f 95/6/135 219/8/362 96/9/136
f 220/10/363 221/11/364 222/12/363
f 220/10/363 222/12/363 223/13/365
f 224/14/366 166/15/256 165/16/255
f 224/14/366 165/16/255 225/17/367
f 226/18/368 227/19/369 107/20/146
f 226/18/368 107/20/146 106/21/145
f 228/22/370 229/23/371 230/24/372
f 228/22/370 230/24/372 231/25/373
f 232/26/374 233/27/375 175/28/265
f 232/26/374 175/28/265 174/29/264
f 218/7/376 224/14/377 221/11/378
f 218/7/376 221/11/378 220/10/379
f 224/14/380 225/17/381 222/12/382
f 224/14/380 222/12/382 221/11/383
f 219/8/384 218/7/385 220/10/386
f 219/8/384 220/10/386 223/13/387
f 225/17/381 232/26/388 234/30/389
f 225/17/381 234/30/389 222/12/382
f 232/26/390 227/19/391 235/31/392
f 232/26/390 235/31/392 234/30/393
f 227/19/394 219/8/384 223/13/387
f 227/19/394 223/13/387 235/31/395
f 19/4/47 236/32/47 237/33/47
f 19/4/47 237/33/47 20/5/47
f 236/32/396 16/1/397 18/3/396
f 236/32/396 18/3/396 237/33/288
f 238/34/398 239/35/399 240/36/400
f 238/34/398 240/36/400 241/37/401
f 239/35/399 242/38/402 243/39/403
f 239/35/399 243/39/403 240/36/400
f 242/38/402 244/40/404 245/41/405
f 242/38/402 245/41/405 243/39/403
f 244/40/404 238/34/398 241/37/401
f 244/40/404 241/37/401 245/41/405
f 229/23/406 228/22/407 241/37/406
f 229/23/406 241/37/406 240/36/408
f 230/24/409 229/23/410 240/36/409
f 230/24/409 240/36/409 243/39/411
f 231/25/373 230/24/372 243/39/403
f 231/25/373 243/39/403 245/41/405
f 228/22/412 231/25/413 245/41/412
f 228/22/412 245/41/412 241/37/414
f 219/8/362 227/19/369 226/18/368
f 219/8/362 226/18/368 246/42/415
f 96/9/136 219/8/362 246/42/415
f 96/9/136 246/42/415 128/43/194
f 225/17/367 247/44/416 233/27/375
f 225/17/367 233/27/375 232/26/374
f 165/16/255 191/45/309 247/44/416
f 165/16/255 247/44/416 225/17/367
f 128/43/196 246/42/417 248/46/418
f 128/43/196 248/46/418 130/47/197
f 246/42/419 226/18/420 249/48/419
f 246/42/419 249/48/419 248/46/421
f 226/18/422 106/21/206 133/49/205
f 226/18/422 133/49/205 249/48/423
f 233/27/424 247/44/425 250/50/424
f 233/27/424 250/50/424 251/51/426
f 247/44/427 191/45/323 196/52/322
f 247/44/427 196/52/322 250/50/428
f 175/28/324 233/27/429 251/51/430
f 175/28/324 251/51/430 197/53/325
f 136/54/47 252/55/391 253/56/431
f 136/54/47 253/56/431 137/57/214
f 252/55/391 254/58/390 255/59/432
f 252/55/391 255/59/432 253/56/431
f 254/58/390 203/60/97 202/61/330
f 254/58/390 202/61/330 255/59/432
f 256/62/217 257/63/433 258/64/434
f 256/62/217 258/64/434 143/65/218
f 257/63/433 259/88/435 260/67/436
f 257/63/433 260/67/436 258/64/434
f 259/88/435 210/87/336 209/69/335
f 259/88/435 209/69/335 260/67/436
f 137/57/214 253/56/431 257/63/437
f 137/57/214 257/63/437 256/62/223
f 253/56/431 255/59/432 259/88/438
f 253/56/431 259/88/438 257/63/437
f 255/59/432 202/61/330 210/87/339
f 255/59/432 210/87/339 259/88/438
f 20/5/439 237/33/440 261/70/441
f 20/5/439 261/70/441 262/71/442
f 237/33/440 18/3/443 263/72/444
f 237/33/440 263/72/444 261/70/441
f 18/3/443 17/2/445 264/73/446
f 18/3/443 264/73/446 263/72/444
f 17/2/445 20/5/439 262/71/442
f 17/2/445 262/71/442 264/73/446
f 262/71/447 261/70/448 239/35/447
f 262/71/447 239/35/447 238/34/449
f 261/70/450 263/72/451 242/38/450
f 261/70/450 242/38/450 239/35/452
f 263/72/453 264/73/454 244/40/453
f 263/72/453 244/40/453 242/38/455
f 264/73/456 262/71/457 238/34/456
f 264/73/456 238/34/456 244/40/458
f 89/74/131 216/75/360 265/76/377
f 89/74/131 265/76/377 153/77/246
f 153/77/246 265/76/377 266/78/376
f 153/77/246 266/78/376 155/79/247
# Vertices: 266, normals: 458, texture coordinates: 88, faces: 416

o obj2
v -0.05745678 0.30971061 0.0923417
v -0.00358814 0.30971061 0.10869864
v 0 0.30971069 0
v 0.05124179 0.30971061 0.0959299
v 0.0923417 0.30971061 0.05745678
v 0.05745678 0.30971061 -0.0923417
v 0.09592989 0.30971061 -0.05124183
v 0.10869863 0.30971061 0.00358811
v -0.09592989 0.30971061 0.05124183
v -0.10869863 0.30971061 -0.00358811
v -0.0923417 0.30971061 -0.05745678
v 0.00358814 0.30971061 -0.10869864
v -0.05124179 0.30971061 -0.0959299
v -0.21929605 0.20179658 0.35244177
v -0.18796066 0.20171049 0.36078011
v -0.14216884 0.31185289 0.27653487
v -0.16781968 0.31176677 0.2697115
v 0.24971428 0.31185289 0.18527352
v 0.32801416 0.20171049 0.24062041
v 0.35244177 0.20179658 0.21929605
v 0.2697115 0.31176677 0.16781968
v 0.21929605 0.20179658 -0.35244177
v 0.16781968 0.31176677 -0.2697115
v 0.18527352 0.31185289 -0.24971431
v 0.24062041 0.20171049 -0.3280142
v 0.27653486 0.31185289 0.14216881
v 0.36078009 0.20171049 0.18796062
v -0.18527352 0.31185289 0.24971431
v -0.24062041 0.20171049 0.3280142
v -0.27653486 0.31185289 -0.14216881
v -0.2697115 0.31176677 -0.16781968
v -0.35244177 0.20179658 -0.21929605
v -0.36078009 0.20171049 -0.18796062
v 0.18796066 0.20171049 -0.36078011
v 0.14216884 0.31185289 -0.27653487
v -0.24971428 0.31185289 -0.18527352
v -0.32801416 0.20171049 -0.24062041
vn 0 1 0
vn 0 1 0
vn 0 1 0
vn 0 1 0
vn 0 1 -0
vn 0 1 -0
vn 0 1 -0
vn 0 1 -0
vn -0 1 0
vn -0 1 0
vn -0 1 0
vn -0 1 -0
vn -0 1 -0
vn -0 0.66289 0.74872
vn 0.22303 0.64619 0.72986
vn 0.22303 0.64619 0.72986
vn -0 0.66289 0.74872
vn 0.72986 0.64619 0.22303
vn 0.72986 0.64619 0.22303
vn 0.74872 0.66289 0
vn 0.74872 0.66289 0
vn 0 0.66289 -0.74872
vn 0 0.66289 -0.74872
vn 0.22303 0.64619 -0.72986
vn 0.22303 0.64619 -0.72986
vn 0.72986 0.64619 -0.22303
vn 0.72986 0.64619 -0.22303
vn -0.22303 0.64619 0.72986
vn -0.22303 0.64619 0.72986
vn -0.72986 0.64619 0.22303
vn -0.74872 0.66289 -0
vn -0.74872 0.66289 -0
vn -0.72986 0.64619 0.22303
vn -0.22303 0.64619 -0.72986
vn -0.22303 0.64619 -0.72986
vn -0.72986 0.64619 -0.22303
vn -0.72986 0.64619 -0.22303
vt 0.99541 0.06955
vt 0.89382 0.01244
vt 0.83805 0.23056
vt 0.77729 0.01378
vt 0.67704 0.0732
vt 0.96537 0.08781
vt 0.96537 0.02716
vt 0.66257 0.02716
vt 0.66257 0.08781
vt 0.6611 0.09022
vt 0.95848 0.09022
vt 0.95848 0.03146
vt 0.6611 0.03146
usemtl mat1
f 267/89/459 268/90/460 269/91/461
f 268/90/460 270/92/462 269/91/461
f 270/92/462 271/93/463 269/91/461
f 272/89/464 269/91/461 273/90/465
f 273/90/465 269/91/461 274/92/466
f 274/92/466 269/91/461 271/93/463
f 267/89/459 269/91/461 275/90/467
f 275/90/467 269/91/461 276/92/468
f 276/92/468 269/91/461 277/93/469
f 272/89/464 278/90/470 269/91/461
f 278/90/470 279/92/471 269/91/461
f 279/92/471 277/93/469 269/91/461
f 280/94/472 281/95/473 282/96/474
f 280/94/472 282/96/474 283/97/475
f 284/98/476 285/99/477 286/100/478
f 284/98/476 286/100/478 287/101/479
f 288/94/480 289/97/481 290/96/482
f 288/94/480 290/96/482 291/95/483
f 292/98/484 287/101/479 286/100/478
f 292/98/484 286/100/478 293/99/485
f 280/94/472 283/97/475 294/96/486
f 280/94/472 294/96/486 295/95/487
f 296/98/488 297/101/489 298/100/490
f 296/98/488 298/100/490 299/99/491
f 288/94/480 300/95/492 301/96/493
f 288/94/480 301/96/493 289/97/481
f 302/98/494 303/99/495 298/100/490
f 302/98/494 298/100/490 297/101/489
# Vertices: 37, normals: 37, texture coordinates: 13, faces: 28

o obj3
v 0.11028616 0.35622977 0.00364053
v 0.09733092 0.35622977 -0.05199022
v 0.41891128 2.00083858 -0.22376721
v 0.47467183 2.00083904 0.01566443
v 0.0582959 0.35622977 -0.09369029
v 0.25090596 2.00083843 -0.40324285
v 0.00364056 0.35622977 -0.11028616
v 0.01567057 2.00083858 -0.47467133
v -0.05199019 0.35622977 -0.09733093
v -0.2237619 2.00083934 -0.41891447
v -0.09369029 0.35622977 -0.0582959
v -0.40323823 2.0008401 -0.25090811
v -0.11028616 0.35622977 -0.00364053
v -0.474666 2.00084102 -0.01567379
v -0.09733092 0.35622977 0.05199022
v -0.41890835 2.00084148 0.22376243
v -0.0582959 0.35622977 0.09369029
v -0.25090227 2.00084178 0.40323855
v -0.00364056 0.35622977 0.11028616
v -0.01566764 2.00084148 0.47466655
v 0.05199019 0.35622977 0.09733093
v 0.22376772 2.00084071 0.41890511
v 0.09369029 0.35622977 0.0582959
v 0.40324319 2.00083995 0.25090014
v 0.11028616 0.35622977 0.00364053
v 0.47467183 2.00083904 0.01566443
vn 0.8455 -0.21643 -0.48815
vn 0.48815 -0.21643 -0.8455
vn 0.4999 -0.01918 -0.86587
vn 0.86587 -0.01918 -0.49991
vn -0 -0.21643 -0.9763
vn 0 -0.01918 -0.99982
vn -0.48815 -0.21643 -0.8455
vn -0.4999 -0.01918 -0.86587
vn -0.8455 -0.21643 -0.48815
vn -0.86587 -0.01918 -0.49991
vn -0.9763 -0.21643 0
vn -0.99982 -0.01918 0
vn -0.8455 -0.21643 0.48815
vn -0.86587 -0.01918 0.49991
vn -0.48815 -0.21643 0.8455
vn -0.49991 -0.01918 0.86586
vn -0 -0.21643 0.9763
vn 0 -0.01918 0.99982
vn 0.48815 -0.21643 0.8455
vn 0.49991 -0.01918 0.86586
vn 0.8455 -0.21643 0.48815
vn 0.86587 -0.01918 0.49991
vn 0.9763 -0.21643 0
vn 0.99982 -0.01918 0
vt 0.37795 0.6932
vt 0.39642 0.69365
vt 0.39583 0.3125
vt 0.375 0.3125
vt 0.41653 0.69379
vt 0.41667 0.3125
vt 0.43714 0.69383
vt 0.4375 0.3125
vt 0.45827 0.69385
vt 0.45833 0.3125
vt 0.47917 0.69385
vt 0.47917 0.3125
vt 0.49968 0.69385
vt 0.5 0.3125
vt 0.52042 0.69385
vt 0.52083 0.3125
vt 0.54122 0.69385
vt 0.54167 0.3125
vt 0.56205 0.69385
vt 0.5625 0.3125
vt 0.58288 0.69385
vt 0.58333 0.3125
vt 0.60371 0.69385
vt 0.60417 0.3125
vt 0.6164 0.69385
vt 0.625 0.3125
usemtl mat2
f 304/102/496 305/103/497 306/104/498
f 304/102/496 306/104/498 307/105/499
f 305/103/497 308/106/500 309/107/501
f 305/103/497 309/107/501 306/104/498
f 308/106/500 310/108/502 311/109/503
f 308/106/500 311/109/503 309/107/501
f 310/108/502 312/110/504 313/111/505
f 310/108/502 313/111/505 311/109/503
f 312/110/504 314/112/506 315/113/507
f 312/110/504 315/113/507 313/111/505
f 314/112/506 316/114/508 317/115/509
f 314/112/506 317/115/509 315/113/507
f 316/114/508 318/116/510 319/117/511
f 316/114/508 319/117/511 317/115/509
f 318/116/510 320/118/512 321/119/513
f 318/116/510 321/119/513 319/117/511
f 320/118/512 322/120/514 323/121/515
f 320/118/512 323/121/515 321/119/513
f 322/120/514 324/122/516 325/123/517
f 322/120/514 325/123/517 323/121/515
f 324/122/516 326/124/518 327/125/519
f 324/122/516 327/125/519 325/123/517
f 326/124/518 328/126/496 329/127/499
f 326/124/518 329/127/499 327/125/519
# Vertices: 26, normals: 24, texture coordinates: 26, faces: 24

o obj4
v 0.47467183 2.00083904 0.01566443
v 0.41891128 2.00083858 -0.22376721
v 7E-08 2.0008401 -1.1E-07
v 0.41891128 2.00083858 -0.22376721
v 0.25090596 2.00083843 -0.40324285
v 0.25090596 2.00083843 -0.40324285
v 0.01567057 2.00083858 -0.47467133
v 0.01567057 2.00083858 -0.47467133
v -0.2237619 2.00083934 -0.41891447
v -0.2237619 2.00083934 -0.41891447
v -0.40323823 2.0008401 -0.25090811
v -0.40323823 2.0008401 -0.25090811
v -0.474666 2.00084102 -0.01567379
v -0.474666 2.00084102 -0.01567379
v -0.41890835 2.00084148 0.22376243
v -0.41890835 2.00084148 0.22376243
v -0.25090227 2.00084178 0.40323855
v -0.25090227 2.00084178 0.40323855
v -0.01566764 2.00084148 0.47466655
v -0.01566764 2.00084148 0.47466655
v 0.22376772 2.00084071 0.41890511
v 0.22376772 2.00084071 0.41890511
v 0.40324319 2.00083995 0.25090014
v 0.40324319 2.00083995 0.25090014
v 0.47467183 2.00083904 0.01566443
vn 0.86587 -0.01918 -0.49991
vn 0.4999 -0.01918 -0.86587
vn 0 1 -0
vn 0 -0.01918 -0.99982
vn -0.4999 -0.01918 -0.86587
vn -0.86587 -0.01918 -0.49991
vn -0.99982 -0.01918 0
vn -0.86587 -0.01918 0.49991
vn -0.49991 -0.01918 0.86586
vn 0 -0.01918 0.99982
vn 0.49991 -0.01918 0.86586
vn 0.86587 -0.01918 0.49991
vn 0.99982 -0.01918 0
vt 0 1
vt 1 1
vt 0.5 0
usemtl mat3
f 330/128/520 331/129/521 332/130/522
f 333/128/521 334/129/523 332/130/522
f 335/128/523 336/129/524 332/130/522
f 337/128/524 338/129/525 332/130/522
f 339/128/525 340/129/526 332/130/522
f 341/128/526 342/129/527 332/130/522
f 343/128/527 344/129/528 332/130/522
f 345/128/528 346/129/529 332/130/522
f 347/128/529 348/129/530 332/130/522
f 349/128/530 350/129/531 332/130/522
f 351/128/531 352/129/532 332/130/522
f 353/128/532 354/129/520 332/130/522
# Vertices: 25, normals: 13, texture coordinates: 3, faces: 12

